<svg width="66" height="66" viewBox="0 0 66 66" fill="none" xmlns="http://www.w3.org/2000/svg">
<g clip-path="url(#clip0_3773_1170)">
<path d="M19.0079 11.7306L17.5312 10.9922V12.4689L19.0079 11.7306Z" fill="#6A0DAD"/>
<path d="M5.92964 32.2617L16.0546 27.1993H25.2656V12.9256L13.664 18.7265V4.73443L27.6562 11.7305H36.8672V0H2.0625V27.1993H5.92964V32.2617Z" fill="#6A0DAD"/>
<path d="M29.1328 42.668H49.9454L60.0703 47.7304V42.668H63.9374V15.5977H29.1328V42.668ZM52.3359 23.332H56.203V34.9336H52.3359V23.332ZM44.6016 27.1993H48.4687V34.9337H44.6016V27.1993ZM36.8672 31.0664H40.7343V34.9336H36.8672V31.0664Z" fill="#6A0DAD"/>
<path d="M5.92964 66L15.9526 62.0039H36.8671V46.5351H25.2656V34.9336H2.0625V62.0039H5.92964V66ZM9.79689 42.668H21.3984V46.5351H9.79689V42.668ZM9.79689 50.4024H29.1328V54.2695H9.79689V50.4024Z" fill="#6A0DAD"/>
</g>
<defs>
<clipPath id="clip0_3773_1170">
<rect width="66" height="66" fill="white"/>
</clipPath>
</defs>
</svg>
