<svg width="96" height="96" viewBox="0 0 96 96" fill="none" xmlns="http://www.w3.org/2000/svg">
<path fill-rule="evenodd" clip-rule="evenodd" d="M15.2163 55.4496H21.4906C21.5788 55.4496 21.6511 55.3809 21.6558 55.293C21.981 49.0608 24.4689 43.4014 28.3836 39.0511C28.4426 38.9856 28.4399 38.8858 28.3777 38.8236L23.9408 34.3866C23.8901 34.336 23.8161 34.3237 23.7516 34.355C21.0548 35.6648 17.8469 33.7077 17.8469 30.6515C17.8469 26.9973 22.2846 25.1599 24.8681 27.7433C26.1253 29.0005 26.4135 30.8936 25.6632 32.4434C25.6319 32.5079 25.6444 32.5817 25.6951 32.6323L30.1318 37.0691C30.194 37.1313 30.2938 37.134 30.3593 37.075C34.7096 33.1603 40.3692 30.6724 46.6012 30.3472C46.6891 30.3426 46.7578 30.27 46.7578 30.182V23.9077C46.7578 23.8359 46.7143 23.775 46.6465 23.7516C43.8143 22.7705 42.928 19.1198 45.0901 16.9577C47.6754 14.3724 52.1114 16.2144 52.1114 19.8659C52.1114 21.6434 50.9765 23.1859 49.35 23.7516C49.2823 23.7752 49.2389 23.8361 49.2389 23.9077V30.182C49.2389 30.2702 49.3078 30.3426 49.3955 30.3472C55.6277 30.6724 61.2872 33.1603 65.6374 37.075C65.7029 37.1338 65.8027 37.1313 65.8649 37.0691L70.3018 32.6322C70.3525 32.5815 70.3648 32.5075 70.3335 32.443C69.0237 29.7462 70.9807 26.5383 74.037 26.5383C77.691 26.5383 79.5286 30.9762 76.9452 33.5595C75.688 34.8167 73.7951 35.1051 72.2451 34.3546C72.1806 34.3233 72.1068 34.3358 72.0561 34.3865L67.6194 38.8232C67.5572 38.8854 67.5545 38.9852 67.6135 39.0507C71.5281 43.4011 74.0161 49.0606 74.3413 55.2926C74.3459 55.3805 74.4183 55.4492 74.5064 55.4492H80.7808C80.8526 55.4492 80.9135 55.4057 80.9369 55.3379C81.918 52.5057 85.5687 51.6194 87.7308 53.7815C90.3161 56.3668 88.4741 60.8028 84.8226 60.8028C83.0451 60.8028 81.5025 59.6679 80.9369 58.0414C80.9133 57.9737 80.8524 57.9305 80.7808 57.9305H73.1377C72.4526 57.9305 71.8972 57.375 71.8972 56.6899C71.8972 43.4909 61.1976 32.7913 47.9985 32.7913C34.7995 32.7913 24.0999 43.4907 24.0999 56.6899C24.0999 57.375 23.5445 57.9305 22.8594 57.9305H15.2163C15.1445 57.9305 15.0836 57.974 15.0602 58.0418C14.0791 60.874 10.4284 61.7603 8.26625 59.5982C5.68097 57.0129 7.52302 52.5769 11.1745 52.5769C12.952 52.5769 14.4945 53.712 15.0602 55.3383C15.0836 55.4062 15.1447 55.4496 15.2163 55.4496ZM58.4994 68.5214C61.1135 69.4939 63.5584 70.8206 65.7754 72.4432C65.8449 72.494 65.9409 72.4835 65.9976 72.4186C68.3934 69.6786 70.1734 66.3867 71.1223 62.7594C71.1497 62.6542 71.071 62.5523 70.9623 62.5523H59.4151C59.3265 62.5523 59.254 62.6218 59.2499 62.7101C59.1614 64.6414 58.8702 66.52 58.3973 68.3246C58.3754 68.4069 58.4195 68.4916 58.4994 68.5214ZM56.5116 73.3782C56.8949 72.6006 57.2418 71.8015 57.5502 70.9832C57.5824 70.8979 57.678 70.8546 57.7633 70.8868C59.988 71.726 62.0748 72.8423 63.981 74.1931C64.0674 74.2543 64.0747 74.3799 63.9962 74.4509C60.7038 77.419 56.5986 79.4688 52.0693 80.2443C51.9128 80.2712 51.8122 80.0826 51.9215 79.9675C53.7603 78.0298 55.3134 75.8101 56.5116 73.3782ZM44.0758 79.9675C41.6282 77.3887 39.7103 74.3351 38.4469 70.9832C38.4149 70.8979 38.3191 70.8547 38.2338 70.8868C36.0089 71.726 33.9223 72.8423 32.0161 74.1931C31.9297 74.2543 31.9224 74.3799 32.0009 74.4509C35.2933 77.419 39.3985 79.4688 43.9278 80.2443C44.0844 80.271 44.185 80.0826 44.0758 79.9675ZM47.9985 69.1179C45.5502 69.1179 43.1803 69.4338 40.9274 70.0268C40.8318 70.052 40.7797 70.1536 40.8151 70.2459C42.2963 74.1118 44.7439 77.5283 47.8926 80.1614C47.9546 80.2132 48.0427 80.2132 48.1047 80.1614C51.2533 77.5285 53.7009 74.1118 55.1822 70.2459C55.2176 70.1536 55.1655 70.052 55.0699 70.0268C52.8168 69.4338 50.4469 69.1179 47.9985 69.1179ZM39.2318 62.726C39.3159 64.3847 39.5638 65.9985 39.9589 67.5508C39.9818 67.6407 40.0726 67.6939 40.1621 67.6697C45.2816 66.2923 50.7153 66.2923 55.8348 67.6697C55.9245 67.6939 56.0151 67.6407 56.038 67.5508C56.4331 65.9987 56.681 64.3849 56.7651 62.726C56.7699 62.631 56.695 62.5523 56.5999 62.5523H39.3968C39.3017 62.5523 39.227 62.6308 39.2318 62.726ZM37.6 68.3244C37.6217 68.4069 37.5776 68.4916 37.4977 68.5214C34.8836 69.4939 32.4387 70.8206 30.2216 72.4432C30.1521 72.494 30.0561 72.4835 29.9995 72.4186C27.6037 69.6786 25.8237 66.3867 24.8748 62.7594C24.8474 62.6542 24.9261 62.5523 25.0348 62.5523H36.582C36.6705 62.5523 36.7431 62.6218 36.7472 62.7101C36.8357 64.6412 37.1269 66.52 37.6 68.3244ZM37.5509 56.7788C37.5509 55.1321 37.9166 53.6412 38.6295 52.1682C38.6577 52.11 38.6506 52.0451 38.6109 51.9942C38.1146 51.3608 37.587 50.8737 36.8791 50.4617C32.9857 48.1957 28.0741 51.049 28.0741 55.5406V57.9656C28.0741 58.1081 28.193 58.2267 28.3352 58.2267H37.3855C37.4767 58.2267 37.5509 58.1524 37.5509 58.0614V56.7788ZM60.0548 47.434C61.1588 48.538 62.9498 48.538 64.054 47.434C65.8294 45.6588 64.5676 42.6067 62.0545 42.6067C59.541 42.6069 58.2794 45.659 60.0548 47.434ZM59.1182 50.4617C58.4097 50.8741 57.8829 51.3604 57.3864 51.9942C57.3464 52.0451 57.3395 52.11 57.3678 52.1682C58.0805 53.6419 58.4462 55.1309 58.4462 56.7788V58.0614C58.4462 58.1524 58.5205 58.2267 58.6115 58.2267H67.662C67.8041 58.2267 67.9231 58.1081 67.9231 57.9656V55.5406C67.9231 51.0488 63.011 48.1957 59.1182 50.4617ZM47.9985 48.7853C43.6044 48.7853 40.0052 52.3847 40.0052 56.7788V58.0614C40.0052 58.1524 40.0795 58.2267 40.1705 58.2267H55.8264C55.9174 58.2267 55.9917 58.1524 55.9917 58.0614V56.7788C55.9917 52.3849 52.3925 48.7853 47.9985 48.7853ZM43.9569 43.3338C43.9569 45.566 45.7662 47.3756 47.9985 47.3756C51.5889 47.3756 53.3951 43.0146 50.8565 40.4761C48.318 37.9375 43.9569 39.7435 43.9569 43.3338ZM33.9428 48.2621C35.5047 48.2621 36.7706 46.9966 36.7706 45.4345C36.7706 42.9212 33.7187 41.6596 31.9433 43.435C30.1673 45.2108 31.4309 48.2621 33.9428 48.2621ZM85.9767 57.8441C87.0014 56.8194 86.2732 55.0581 84.8226 55.0581C83.3722 55.0581 82.6438 56.8194 83.6685 57.8441C84.3057 58.4813 85.3395 58.4813 85.9767 57.8441ZM10.0204 55.536C8.99566 56.5607 9.72392 58.3219 11.1745 58.3219C12.625 58.3219 13.3533 56.5607 12.3286 55.536C11.6913 54.899 10.6576 54.899 10.0204 55.536ZM21.9599 29.0197C20.5086 29.0197 19.7818 30.7817 20.8058 31.8056C21.8301 32.8299 23.5917 32.1024 23.5917 30.6515C23.5919 29.7499 22.8613 29.0197 21.9599 29.0197ZM49.1527 18.712C48.1279 17.6873 46.3667 18.4155 46.3667 19.8661C46.3667 21.3164 48.1279 22.0449 49.1527 21.0202C49.7897 20.3829 49.7897 19.349 49.1527 18.712ZM75.669 30.6515C75.669 29.2002 73.907 28.4734 72.8831 29.4974C71.8588 30.5219 72.5861 32.2833 74.0372 32.2833C74.9386 32.2835 75.669 31.5529 75.669 30.6515Z" fill="#6A0DAD"/>
</svg>
