<svg width="94" height="94" viewBox="0 0 94 94" fill="none" xmlns="http://www.w3.org/2000/svg">
<path fill-rule="evenodd" clip-rule="evenodd" d="M60.785 53.5615C60.2549 54.7198 60.7215 55.5714 61.1232 56.6506C61.1665 56.7667 61.0729 56.8869 60.9497 56.8737C59.102 56.6752 57.8118 56.3892 55.9374 55.9029C53.3289 55.2261 51.3292 54.7813 48.6015 55.5007C48.3351 55.5711 46.9484 56.0021 46.8099 56.1405L37.5386 65.4117C36.4588 66.4916 37.9528 68.334 39.2321 67.4809L46.1485 62.87L46.1504 62.8728C46.4677 62.6617 46.8775 62.5985 47.2633 62.7384C49.7051 63.6225 52.1524 63.8908 54.7045 63.4206C55.118 63.3452 55.5596 63.4815 55.8583 63.8194L61.4094 70.1659C61.4534 70.2161 61.5188 70.2349 61.5827 70.2155L65.5567 69.0117C65.6407 68.9862 65.7298 69.0303 65.7604 69.1127L66.1789 70.2373C66.6777 71.5774 68.1747 72.2624 69.5156 71.7637L73.1817 70.3996C74.2266 70.0108 74.889 69.004 74.8709 67.9228C74.8694 67.8294 74.9437 67.7538 75.0369 67.7538H77.101C77.1925 67.7538 77.2672 67.6792 77.2672 67.5876V55.9095C77.2672 55.8179 77.1925 55.7433 77.101 55.7433H74.8243C74.7327 55.7433 74.6581 55.6686 74.6581 55.5771V25.7319C74.6581 25.5315 74.9076 25.5585 75.1189 25.542C80.8803 25.0878 86.6414 24.633 89.4851 21.084C89.4862 21.0826 89.4872 21.0813 89.4883 21.08C90.358 20.0592 89.3398 18.6823 88.1836 19.0596C86.6909 19.5467 83.6821 19.2169 82.3146 18.7009C81.2688 18.3061 80.5292 17.9154 79.8212 17.5411C78.3734 16.7761 77.0427 16.0732 73.7446 15.4519C72.7915 15.2708 72.1656 15.9053 72.1656 16.6535L72.1658 55.5774C72.1658 55.669 72.0912 55.7436 71.9996 55.7436H70.6118C70.5411 55.7436 70.4808 55.7017 70.4561 55.6353L69.2413 52.3704C68.7431 51.0314 67.2464 50.3454 65.9071 50.843L62.2383 52.2081C61.5682 52.4576 61.0614 52.9573 60.785 53.5615ZM23.3862 55.7436C23.4569 55.7436 23.5172 55.7017 23.5419 55.6353L24.7567 52.3705C25.2553 51.0305 26.7527 50.345 28.0935 50.844L31.7597 52.2083C33.1112 52.7112 33.7807 54.2159 33.2863 55.5449L32.8785 56.641C32.8345 56.759 32.9319 56.8807 33.0569 56.8636L35.1059 56.5816C38.2166 56.0412 40.6463 54.842 43.8385 55.2058C43.9771 55.2216 44.0357 55.3898 43.9372 55.4883L35.7763 63.6492C35.1012 64.3243 34.7341 65.1978 34.6844 66.0919C34.6278 67.1156 34.9504 67.9428 35.6152 68.7734C36.8301 70.2916 38.9994 70.6317 40.6149 69.5547L46.9554 65.3277C46.9988 65.2987 47.0484 65.2918 47.0981 65.3078C49.4672 66.0658 51.8994 66.3256 54.3652 65.991C54.4218 65.9832 54.4741 66.0026 54.512 66.0455L59.1647 71.3055C59.8322 72.0603 59.2784 73.3068 58.2145 73.2416C57.781 73.215 57.6086 73.0398 57.3644 72.7956L57.3612 72.7988C56.9008 72.3376 56.1548 72.3093 55.6603 72.7469C55.1467 73.2013 55.0988 73.986 55.5532 74.4996C56.2134 75.246 55.6808 76.5018 54.603 76.4357C54.2035 76.4112 54.0071 76.252 53.7497 75.9931L53.7529 75.9897C52.6578 74.8946 50.8308 76.434 51.9883 77.7502C52.5527 78.3918 52.1038 79.698 50.9915 79.63C50.592 79.6055 50.3956 79.4463 50.1382 79.1874L50.1414 79.184C49.0463 78.0889 47.2193 79.6283 48.3768 80.9445C48.9412 81.5861 48.4923 82.8923 47.3801 82.8243C47.1676 82.8113 44.0948 81.7254 43.2004 81.0482C39.9853 78.6138 34.281 72.9182 33.2034 72.0199C33.0909 71.9265 33.0761 71.866 32.8629 71.7498L28.1877 69.7472C27.9674 69.6528 27.9119 69.9888 27.8194 70.2373C27.3212 71.5762 25.8244 72.2624 24.485 71.7646L20.8164 70.3996C19.7717 70.0108 19.1094 69.0038 19.1274 67.9228C19.1289 67.8294 19.0547 67.7538 18.9614 67.7538H16.897C16.8054 67.7538 16.7308 67.6792 16.7308 67.5876V55.9095C16.7308 55.8179 16.8054 55.7433 16.897 55.7433H19.1737C19.2652 55.7433 19.3399 55.6686 19.3399 55.5771V25.7319C19.3399 25.645 19.2735 25.573 19.1868 25.5663C13.3968 25.1092 7.3966 24.7013 4.51306 21.084C4.51193 21.0826 4.51099 21.0813 4.50986 21.08C3.64017 20.0592 4.65838 18.6823 5.81458 19.0596C6.49138 19.2812 7.4891 19.3341 8.51483 19.2761C11.0464 19.1331 12.2696 18.549 14.1772 17.5411C15.625 16.7761 16.9556 16.0732 20.2537 15.4519C21.2037 15.2695 21.8327 15.9042 21.8327 16.6535L21.8326 55.5774C21.8326 55.669 21.9072 55.7436 21.9987 55.7436H23.3862ZM33.5278 16.417C36.1662 13.7787 39.5752 11.9103 43.3883 11.179C43.5398 11.1498 43.6458 11.3258 43.5492 11.4461C40.9819 14.6435 39.1793 18.4931 38.2094 22.5765C38.1872 22.6695 38.0931 22.7244 38.0013 22.6976C35.5731 21.9882 33.2402 20.9819 31.0805 19.7388C30.9974 19.6911 30.9718 19.5845 31.0241 19.5042C31.7503 18.389 32.5905 17.3544 33.5278 16.417ZM55.997 22.6976C55.9051 22.7244 55.8109 22.6695 55.7887 22.5765C54.8187 18.4931 53.0163 14.6436 50.449 11.4463C50.3523 11.3258 50.4582 11.1498 50.6099 11.179C55.7391 12.1632 60.181 15.2155 62.9741 19.5042C63.0264 19.5845 63.0008 19.6911 62.9177 19.739C60.7521 20.9854 58.4324 21.9845 55.997 22.6976ZM56.6032 34.6685C56.4764 34.6318 56.2886 34.6106 56.3136 34.4361C56.7443 31.436 56.7443 28.3404 56.3136 25.3401C56.3018 25.2574 56.3522 25.1795 56.4326 25.1568C59.1459 24.3854 61.7175 23.2958 64.1115 21.9249C64.1968 21.876 64.3046 21.9106 64.3454 22.0001C66.6192 26.9937 66.6194 32.7824 64.3454 37.7763C64.3046 37.8658 64.1968 37.9004 64.1115 37.8515C61.7726 36.5122 59.256 35.4372 56.6032 34.6685ZM55.7887 37.2001C55.8109 37.107 55.9053 37.0521 55.997 37.079C58.429 37.7904 60.7542 38.7924 62.9177 40.0375C63.0008 40.0853 63.0264 40.1919 62.9741 40.2724C60.1812 44.561 55.7391 47.6134 50.6099 48.5976C50.4584 48.6267 50.3523 48.4507 50.4492 48.3304C53.0161 45.1331 54.8188 41.2831 55.7887 37.2001ZM40.6252 36.6069C40.6034 36.5148 40.6619 36.424 40.7548 36.4058C44.8517 35.5976 49.1461 35.5976 53.243 36.4058C53.3359 36.4242 53.3944 36.5148 53.3726 36.6069C52.3258 41.0471 50.2031 45.1829 47.1178 48.3447C47.0522 48.4118 46.9454 48.4118 46.88 48.3447C43.7947 45.1829 41.6722 41.0473 40.6252 36.6069ZM38.0009 37.079C38.0929 37.0521 38.1871 37.107 38.2092 37.2001C39.1791 41.2832 40.982 45.1331 43.549 48.3302C43.6456 48.4506 43.5398 48.6267 43.3881 48.5976C38.2589 47.6134 33.8168 44.5608 31.0239 40.2724C30.9716 40.1921 30.9972 40.0855 31.0803 40.0375C33.2458 38.7911 35.5656 37.7921 38.0009 37.079ZM37.3614 29.8882C37.3614 31.4381 37.4721 32.9578 37.6843 34.4361C37.6962 34.519 37.6458 34.5966 37.5653 34.6196C34.8559 35.3891 32.2771 36.4825 29.8867 37.8515C29.8013 37.9004 29.6936 37.8658 29.6528 37.7763C27.3787 32.7826 27.3789 26.9937 29.6528 22.0001C29.6936 21.9106 29.8013 21.876 29.8867 21.9249C32.2805 23.296 34.8523 24.3856 37.5655 25.1568C37.646 25.1797 37.6964 25.2574 37.6845 25.3401C37.4721 26.8187 37.3614 28.3383 37.3614 29.8882ZM53.6882 25.8167C53.7828 25.7981 53.8723 25.8622 53.885 25.9577C54.2304 28.5492 54.2302 31.2271 53.885 33.8187C53.8723 33.9142 53.7828 33.9783 53.6882 33.9597C49.279 33.0893 44.7191 33.0893 40.3099 33.9597C40.2154 33.9783 40.1259 33.9142 40.1131 33.8187C39.7679 31.2271 39.7678 28.5492 40.1131 25.9577C40.1259 25.8622 40.2154 25.7981 40.3099 25.8167C44.7189 26.6873 49.279 26.6873 53.6882 25.8167ZM46.88 11.4317C46.9456 11.3645 47.0524 11.3645 47.1178 11.4317C50.2031 14.5934 52.3258 18.7293 53.3726 23.1694C53.3944 23.2616 53.3359 23.3524 53.243 23.3706C49.1461 24.1788 44.8517 24.1788 40.7548 23.3706C40.6619 23.3524 40.6034 23.2616 40.625 23.1694C41.672 18.7293 43.7947 14.5934 46.88 11.4317ZM27.2917 53.1953C27.2035 53.1626 27.0926 53.2135 27.0601 53.3013L21.6408 67.8651C21.6079 67.9533 21.659 68.0637 21.7466 68.0964L25.2412 69.3968C25.3414 69.4345 25.4585 69.4477 25.5068 69.3178L30.9351 54.7429C30.968 54.6547 30.9169 54.5444 30.8293 54.5117L27.2917 53.1953ZM63.1692 54.5115L66.7208 53.1947C66.8539 53.1453 66.9176 53.2476 66.9541 53.3446L72.3572 67.8649C72.3899 67.9529 72.3389 68.0638 72.2511 68.0966L68.7135 69.4129C68.6254 69.4458 68.515 69.3947 68.4823 69.3071L63.063 54.7433C63.0301 54.6551 63.0813 54.5442 63.1692 54.5115Z" fill="#6A0DAD"/>
</svg>
