<svg width="74" height="74" viewBox="0 0 74 74" fill="none" xmlns="http://www.w3.org/2000/svg">
<path d="M50.3432 49.6567H43.4657V47.5898H27.2227V62.0517C27.2227 62.6837 27.4737 63.2898 27.9205 63.7368C28.3674 64.1838 28.9734 64.435 29.6055 64.4352H64.2034C64.5164 64.4352 64.8263 64.3735 65.1154 64.2538C65.4046 64.134 65.6673 63.9584 65.8886 63.737C66.1098 63.5157 66.2853 63.2529 66.4051 62.9637C66.5248 62.6746 66.5863 62.3646 66.5862 62.0517V47.5898H50.3432V49.6567Z" fill="#6A0DAD"/>
<path d="M39.1319 36.5754V35.1161C39.1323 34.6957 39.2995 34.2925 39.5968 33.9952C39.8941 33.6979 40.2972 33.5307 40.7177 33.5303H53.0875C53.508 33.5307 53.9111 33.6979 54.2084 33.9952C54.5058 34.2925 54.673 34.6957 54.6734 35.1161V36.5754H57.6334V35.1161C57.632 33.9109 57.1526 32.7555 56.3004 31.9033C55.4482 31.0511 54.2927 30.5717 53.0875 30.5703H40.7177C39.5125 30.5717 38.357 31.0511 37.5048 31.9033C36.6526 32.7555 36.1732 33.9109 36.1719 35.1161V36.5754H39.1319Z" fill="#6A0DAD"/>
<path d="M64.2034 38.0547H29.6055C28.9734 38.0549 28.3674 38.3061 27.9205 38.7531C27.4737 39.2001 27.2227 39.8062 27.2227 40.4382V46.1096H43.4657V44.0435H50.3432V46.1096H66.5862V40.4382C66.5863 40.1252 66.5248 39.8153 66.4051 39.5261C66.2853 39.237 66.1098 38.9742 65.8886 38.7529C65.6673 38.5315 65.4046 38.3559 65.1154 38.2361C64.8263 38.1163 64.5164 38.0547 64.2034 38.0547Z" fill="#6A0DAD"/>
<path d="M24.8469 10.0781C24.3512 10.5045 23.8899 10.9695 23.4675 11.4686C21.8173 13.4052 20.418 16.101 19.3975 19.2926C16.9148 18.7746 14.7096 18.0694 12.9336 17.2317C16.0451 13.6436 20.2174 11.1383 24.8469 10.0781Z" fill="#6A0DAD"/>
<path d="M46.872 17.2371C45.096 18.0748 42.8893 18.7778 40.4088 19.298C39.3898 16.1064 37.9898 13.4113 36.3388 11.474C35.9164 10.9749 35.4557 10.5095 34.9609 10.082C39.5896 11.1435 43.7609 13.6493 46.872 17.2371Z" fill="#6A0DAD"/>
<path d="M52.2086 29.0917H42.1712C42.0115 26.263 41.5614 23.4582 40.8281 20.7216C43.5247 20.1488 45.9201 19.3607 47.83 18.418C50.2008 21.5301 51.7109 25.2112 52.2086 29.0917Z" fill="#6A0DAD"/>
<path d="M25.7399 43.832V52.7372C23.7781 51.0196 22.0658 48.1196 20.8633 44.4248C22.4247 44.1539 24.0579 43.9549 25.7399 43.832Z" fill="#6A0DAD"/>
<path d="M24.8426 53.92C20.2143 52.863 16.0438 50.3573 12.9375 46.7672C14.7135 45.9303 16.918 45.2273 19.4007 44.707C20.1806 47.155 21.1715 49.2832 22.3488 51.0407C23.1236 52.1981 23.9591 53.1608 24.8426 53.92Z" fill="#6A0DAD"/>
<path d="M29.1616 9.5625V20.3132C26.3803 20.2871 23.6054 20.0397 20.8633 19.5732C22.7473 13.7842 25.8472 10.0516 29.1616 9.5625Z" fill="#6A0DAD"/>
<path d="M38.9436 19.5754C36.2013 20.0419 33.4261 20.2894 30.6445 20.3154V9.5625C33.9575 10.0472 37.0596 13.7805 38.9436 19.5754Z" fill="#6A0DAD"/>
<path d="M18.9819 43.2827C16.2817 43.8555 13.8885 44.6436 11.9786 45.5848C9.24407 42.0039 7.66307 37.6761 7.44531 33.1758H17.5648C17.6514 36.7145 18.1383 40.1769 18.9819 43.2827Z" fill="#6A0DAD"/>
<path d="M29.1639 33.1758V36.6005C28.2224 36.71 27.3538 37.1614 26.7231 37.8689C26.0923 38.5765 25.7433 39.491 25.7422 40.4389V42.3488C23.9642 42.4724 22.1939 42.6893 20.4386 42.9985C19.6105 39.9912 19.1318 36.6234 19.043 33.1758H29.1639Z" fill="#6A0DAD"/>
<path d="M18.9771 20.7216C18.0647 24.0827 17.5711 27.8537 17.5482 31.6987H7.41016C7.45487 26.8951 9.05529 22.2354 11.9715 18.418C13.8852 19.36 16.2783 20.1481 18.9771 20.7216Z" fill="#6A0DAD"/>
<path d="M29.1641 21.7957V31.6969H19.0312C19.0557 27.9414 19.5396 24.2651 20.4373 21.0039C23.3198 21.5049 26.2384 21.7697 29.1641 21.7957Z" fill="#6A0DAD"/>
<path d="M40.6886 29.0914C39.7181 29.0963 38.7632 29.3358 37.9054 29.7895C37.0475 30.2432 36.312 30.8976 35.7616 31.6969H30.6445V21.7957C33.5697 21.7697 36.4878 21.5049 39.3699 21.0039C40.0581 23.4947 40.5073 26.2579 40.6886 29.0914Z" fill="#6A0DAD"/>
<path d="M35.0157 33.1758C34.802 33.8003 34.6932 34.456 34.6938 35.1161V36.5753H30.6445V33.1758H35.0157Z" fill="#6A0DAD"/>
</svg>
