<svg width="81" height="81" viewBox="0 0 81 81" fill="none" xmlns="http://www.w3.org/2000/svg">
<path d="M39.2344 3.93555V18.9712C36.0703 18.9079 32.9569 18.5915 29.97 18.0599C31.552 10.5421 35.0831 4.91008 39.2344 3.93555ZM41.7656 3.93555V18.9712C44.9297 18.9079 48.0431 18.5915 51.03 18.0599C49.448 10.5421 45.9169 4.91008 41.7656 3.93555ZM29.1094 26.5776C29.1094 28.6532 29.2739 30.6782 29.5397 32.602C32.6784 32.0451 35.9311 31.716 39.2344 31.6527V21.5024C35.9311 21.4391 32.6784 21.1101 29.5397 20.5532C29.2739 22.477 29.1094 24.502 29.1094 26.5776ZM51.4603 20.5532C48.3216 21.1101 45.0689 21.4391 41.7656 21.5024V31.6527C45.0689 31.716 48.3216 32.0451 51.4603 32.602C51.7261 30.6782 51.8906 28.6532 51.8906 26.5776C51.8906 24.502 51.7261 22.477 51.4603 20.5532ZM39.2344 49.2196V34.184C36.0703 34.2473 32.9569 34.5637 29.97 35.0952C31.552 42.613 35.0831 48.2451 39.2344 49.2196ZM41.7656 34.184V49.2196C45.9169 48.2451 49.448 42.613 51.03 35.0952C48.0431 34.5637 44.9297 34.2473 41.7656 34.184ZM61.4896 17.7225C59.1137 18.6691 56.5882 19.444 53.9541 20.0415C54.2495 22.1235 54.4219 24.3048 54.4219 26.5775C54.4219 28.8501 54.2495 31.0314 53.9541 33.1134C56.5882 33.711 59.1137 34.486 61.4896 35.4324C62.643 32.7088 63.2812 29.7162 63.2812 26.5773C63.2812 23.4384 62.643 20.4461 61.4896 17.7225ZM27.046 33.1135C26.7506 31.0316 26.5783 28.8503 26.5783 26.5776C26.5783 24.3049 26.7506 22.1236 27.046 20.0416C24.4119 19.444 21.8865 18.6691 19.5105 17.7226C18.3571 20.4463 17.7189 23.4388 17.7189 26.5777C17.7189 29.7166 18.3571 32.7092 19.5105 35.4328C21.8865 34.4862 24.4119 33.711 27.046 33.1135ZM53.5249 17.5475C55.9114 16.9997 58.1963 16.2932 60.3558 15.445C57.6372 10.6159 53.2103 6.88559 47.8991 5.05398C50.4692 7.93935 52.4527 12.3008 53.5249 17.5475ZM27.4752 35.6076C25.0887 36.1553 22.8038 36.8618 20.6444 37.71C23.3629 42.5391 27.7898 46.2694 33.101 48.101C30.5309 45.2157 28.5474 40.8542 27.4752 35.6076ZM53.5249 35.6076C52.4527 40.8542 50.4692 45.2157 47.8991 48.101C53.2103 46.2694 57.6372 42.5391 60.3558 37.71C58.1963 36.8618 55.9115 36.1553 53.5249 35.6076ZM27.4752 17.5475C28.5474 12.3008 30.5309 7.93935 33.101 5.05398C27.7898 6.88559 23.3629 10.6159 20.6444 15.445C22.8038 16.2932 25.0886 16.9997 27.4752 17.5475ZM70.0398 57.927C64.585 57.3195 57.0418 56.8512 47.0054 58.6484C43.9679 59.18 41.7658 61.8125 41.7658 64.8879V65.8118H73.4064V61.6985C73.4064 59.7621 71.9509 58.1421 70.0398 57.927ZM39.2345 64.8879V65.8118H7.59375V61.6985C7.59375 59.7621 9.04922 58.1421 10.9603 57.927C16.4152 57.3195 23.9583 56.8512 33.9947 58.6484C37.0322 59.18 39.2345 61.8125 39.2345 64.8879ZM77.2032 70.8743V74.6712C77.2032 76.0672 76.068 77.2025 74.672 77.2025H6.32812C4.93214 77.2025 3.79688 76.0672 3.79688 74.6712V70.8743C3.79688 69.4783 4.93214 68.3431 6.32812 68.3431H74.6719C76.0679 68.3431 77.2032 69.4783 77.2032 70.8743Z" fill="#0D1B73"/>
</svg>
