<svg width="81" height="81" viewBox="0 0 81 81" fill="none" xmlns="http://www.w3.org/2000/svg">
<path d="M73.6193 23.5711V40.8231C73.6193 41.5508 73.0276 42.1409 72.2999 42.1409C71.5737 42.1409 70.9821 41.5508 70.9821 40.8231V29.0386C70.9821 28.4263 70.4853 27.9296 69.8746 27.9296C69.2624 27.9296 68.7672 28.4263 68.7672 29.0386V33.8764H55.8199V20.3785C55.8199 19.7663 55.3231 19.2711 54.7124 19.2711H42.9263C42.2002 19.2711 41.6085 18.6794 41.6085 17.9517C41.6085 17.2224 42.2002 16.6291 42.9263 16.6291H59.2608H61.5009L60.8713 20.8421L62.2904 23.2262L63.711 20.8421L63.0814 16.6291H65.3215H66.6805C70.5074 16.6291 73.6193 19.7441 73.6193 23.5711ZM62.2904 14.4143C65.6538 14.4143 68.3907 11.6773 68.3907 8.31553C68.3907 4.95213 65.6538 2.2168 62.2904 2.2168C58.9286 2.2168 56.1916 4.95213 56.1916 8.31553C56.1916 11.6773 58.9286 14.4143 62.2904 14.4143ZM49.7559 21.4859H46.9763C45.6949 23.8432 43.2269 25.3287 40.5011 25.3287C37.7736 25.3287 35.3072 23.8432 34.0258 21.4859H31.243C31.3743 21.8277 31.523 22.1615 31.6876 22.4826C31.8663 22.8307 31.8473 23.2467 31.6401 23.579L30.9535 24.669C31.7255 25.7638 32.6874 26.7256 33.7822 27.4992L34.8674 26.8111C35.1997 26.6006 35.6189 26.5817 35.9685 26.762C36.4669 27.0199 36.9589 27.224 37.4699 27.3853C37.8464 27.504 38.1312 27.8141 38.2182 28.1985L38.4998 29.4546C39.8208 29.6809 41.1813 29.6809 42.5007 29.4546L42.7839 28.1985C42.8694 27.8141 43.1541 27.504 43.5306 27.3853C44.0432 27.224 44.5352 27.0199 45.0336 26.762C45.3832 26.5817 45.8024 26.6006 46.1347 26.8111L47.2199 27.4992C48.3131 26.7256 49.2766 25.7638 50.0486 24.669L49.362 23.579C49.1532 23.2467 49.1358 22.8307 49.3145 22.4826C49.4807 22.1567 49.6294 21.8245 49.7559 21.4859ZM31.6876 13.4176C31.523 13.7387 31.3743 14.0725 31.2446 14.4143H34.0242C35.3057 12.0586 37.7736 10.5747 40.5011 10.5747C43.2285 10.5747 45.6964 12.0586 46.9763 14.4143H49.7575C49.6294 14.0773 49.4807 13.7435 49.3145 13.4176C49.1358 13.0695 49.1532 12.6519 49.362 12.3212L50.0486 11.2312C49.275 10.138 48.3115 9.17615 47.2184 8.4057L46.1331 9.09072C45.8024 9.29797 45.388 9.31853 45.0399 9.14135C44.5352 8.88506 44.0401 8.67939 43.5227 8.5117C43.151 8.39147 42.8694 8.08297 42.7839 7.7017L42.5007 6.44715C41.1956 6.22408 39.8065 6.22408 38.4998 6.44715L38.2182 7.7017C38.1328 8.08297 37.8512 8.39147 37.4778 8.5117C36.9573 8.68098 36.4495 8.89139 35.9654 9.13977C35.6173 9.31854 35.1997 9.29955 34.869 9.09072L33.7837 8.4057C32.689 9.17615 31.7271 10.138 30.9535 11.2312L31.6401 12.3212C31.8473 12.6519 31.8663 13.0695 31.6876 13.4176ZM10.0201 40.8231V29.0386C10.0201 28.4263 10.5152 27.9296 11.1275 27.9296C11.7397 27.9296 12.2349 28.4263 12.2349 29.0386V33.8764H25.1822V20.3785C25.1822 19.7663 25.6774 19.2711 26.2897 19.2711H38.0742C38.7893 19.2711 39.3936 18.6668 39.3936 17.9517C39.3936 17.2224 38.802 16.6291 38.0742 16.6291H21.7397H19.5012L20.1308 20.8421L18.7102 23.2262L17.2911 20.8421L17.9207 16.6291H15.6806H14.32C10.4947 16.6291 7.38281 19.7441 7.38281 23.5711V40.8231C7.38281 41.5508 7.97449 42.1409 8.70064 42.1409C9.42838 42.1409 10.0201 41.5508 10.0201 40.8231ZM18.7102 14.4143C22.0736 14.4143 24.8089 11.6773 24.8089 8.31553C24.8089 4.95213 22.0736 2.2168 18.7102 2.2168C15.3452 2.2168 12.6067 4.95213 12.6067 8.31553C12.6067 11.6773 15.3452 14.4143 18.7102 14.4143ZM12.2349 36.0913V45.9853H25.1822V36.0913H12.2349ZM22.806 48.2001H8.82721C8.99016 52.8972 10.1798 57.3379 12.1779 61.3041H24.396C23.4262 57.2351 22.8804 52.7959 22.806 48.2001ZM27.7768 70.7868C26.6662 68.5909 25.7265 66.1467 24.975 63.5189H13.4088C17.7182 70.6017 24.725 75.8698 32.9943 77.8854C31.0611 76.1768 29.2971 73.7895 27.7768 70.7868ZM53.2253 70.7868C51.705 73.7895 49.941 76.1768 48.0078 77.8854C56.2771 75.8698 63.2839 70.6017 67.5933 63.5189H56.0271C55.2756 66.1467 54.3359 68.5909 53.2253 70.7868ZM53.7205 63.5189H27.28C27.9619 65.7781 28.7893 67.8822 29.7527 69.7853C32.6431 75.4981 36.3878 78.6827 40.3144 78.7824C40.3761 78.7839 40.4394 78.7839 40.5011 78.7839C40.5628 78.7839 40.626 78.7839 40.6877 78.7824C44.6143 78.6827 48.3574 75.4981 51.2478 69.7853C52.2112 67.8822 53.0387 65.7781 53.7205 63.5189ZM26.6741 61.3041H54.328C55.3358 57.2667 55.9037 52.8212 55.9812 48.2001H25.0209C25.0984 52.8212 25.6663 57.2667 26.6741 61.3041ZM56.6061 61.3041H68.8242C70.8223 57.3379 72.012 52.8972 72.1733 48.2001H58.1961C58.1217 52.7959 57.5759 57.2351 56.6061 61.3041ZM68.7672 36.0913H55.8199V45.9853H68.7672V36.0913Z" fill="#0D1B73"/>
</svg>
