<svg width="88" height="88" viewBox="0 0 88 88" fill="none" xmlns="http://www.w3.org/2000/svg">
<path fill-rule="evenodd" clip-rule="evenodd" d="M32.4782 47.1854C30.1408 47.1853 27.8558 47.8783 25.9122 49.1769C23.9686 50.4754 22.4537 52.3211 21.5592 54.4806C20.6646 56.6401 20.4305 59.0164 20.8864 61.309C21.3424 63.6015 22.4679 65.7074 24.1207 67.3603C25.7735 69.0131 27.8793 70.1388 30.1719 70.5948C32.4644 71.0509 34.8407 70.8169 37.0002 69.9224C39.1598 69.0279 41.0056 67.5131 42.3042 65.5696C43.6029 63.6261 44.296 61.3411 44.296 59.0037C44.2924 55.8704 43.0462 52.8666 40.8307 50.651C38.6152 48.4354 35.6114 47.1891 32.4782 47.1854ZM32.4782 68.2706C30.6454 68.2708 28.8536 67.7274 27.3296 66.7092C25.8055 65.691 24.6177 64.2438 23.9161 62.5505C23.2146 60.8571 23.031 58.9938 23.3885 57.1962C23.746 55.3985 24.6286 53.7472 25.9245 52.4512C27.2205 51.1551 28.8717 50.2724 30.6694 49.9148C32.467 49.5572 34.3303 49.7406 36.0237 50.442C37.7171 51.1434 39.1644 52.3312 40.1827 53.8551C41.201 55.3791 41.7445 57.1708 41.7445 59.0037C41.7417 61.4604 40.7645 63.8158 39.0274 65.553C37.2903 67.2903 34.935 68.2676 32.4782 68.2706ZM59.5171 62.0161L56.0892 64.1829L52.9925 62.0453L54.8173 50.8906L56.1655 49.544L57.5178 50.9144L59.5171 62.0165V62.0161ZM50.0493 42.6913C49.5723 43.2399 49.0439 43.7415 48.4714 44.1894L51.391 50.71L54.3988 47.7022L50.0504 42.6905L50.0493 42.6913ZM57.9384 47.7101L60.8931 50.6988L64.0384 43.6753C63.5477 43.2404 63.1016 42.7575 62.7069 42.2338L57.9389 47.7101H57.9384ZM69.7698 30.636C69.5695 30.749 69.3519 30.8565 69.1278 30.9604C69.4728 30.0565 69.7747 29.1306 70.0281 28.1958C70.6883 28.7458 70.9521 29.2127 70.9521 29.5042C70.9521 29.7277 70.6405 30.1421 69.7698 30.636ZM55.515 20.7329C56.0522 20.9419 56.6483 20.9419 57.1856 20.7329L71.1532 15.4024V24.2997H41.5484V15.4026L55.5151 20.7331L55.515 20.7329ZM42.6446 29.5042C42.6446 29.2017 42.8906 28.7533 43.5066 28.2286C43.7402 29.2382 44.015 30.2149 44.3316 31.1517C43.2256 30.5284 42.6441 29.9142 42.6441 29.5042H42.6446ZM45.8198 26.8508H67.7394C66.6831 31.2245 64.4628 35.4143 61.8075 37.9748C61.6714 38.1062 61.5663 38.2664 61.4998 38.4435C61.4333 38.6207 61.4071 38.8104 61.423 38.999C61.4444 39.2347 61.4797 39.469 61.5287 39.7005L56.1714 45.8549L51.4058 40.3621C51.5528 39.9203 51.6474 39.4628 51.6877 38.999C51.703 38.8103 51.6763 38.6206 51.6095 38.4435C51.5427 38.2664 51.4374 38.1063 51.3013 37.9748C48.679 35.4453 46.7597 31.5294 45.8198 26.8508ZM8.63503 86.4531C8.56546 86.4611 8.49517 86.4464 8.43463 86.4112L5.07189 83.0467C5.03664 82.9868 5.02169 82.9171 5.02927 82.848C5.03666 81.9552 5.89517 80.1163 9.29933 76.3403L15.3533 81.9935C11.4333 85.5563 9.54391 86.445 8.63589 86.4528L8.63503 86.4531ZM20.9315 76.5065C20.7558 76.6796 20.508 76.9362 20.2 77.2554C19.1125 78.3781 18.1203 79.3676 17.215 80.2441L11.0389 74.4734C11.9613 73.513 13.018 72.4524 14.2261 71.2824C14.5455 70.973 14.8021 70.7248 14.9753 70.5499C14.9935 70.5341 15.0168 70.5257 15.0408 70.5262C15.0525 70.5257 15.0641 70.5276 15.0751 70.5317C15.086 70.5357 15.096 70.5419 15.1046 70.5499L20.9311 76.3764C20.9391 76.385 20.9452 76.395 20.9491 76.406C20.953 76.4169 20.9547 76.4286 20.954 76.4402C20.9547 76.4521 20.9531 76.4641 20.9492 76.4753C20.9453 76.4866 20.9391 76.497 20.9311 76.5059L20.9315 76.5065ZM21.0862 72.9236L18.5577 70.3959L19.8396 69.1147C20.2131 69.5804 20.6114 70.0257 21.0325 70.4488C21.4553 70.8707 21.9012 71.2685 22.3684 71.6406L21.0862 72.9236ZM22.8371 68.644C20.9305 66.7371 19.6322 64.3078 19.1062 61.6631C18.5803 59.0184 18.8504 56.2772 19.8824 53.786C20.9144 51.2948 22.6619 49.1656 24.9039 47.6675C27.146 46.1695 29.7819 45.3699 32.4784 45.3699C35.1749 45.3699 37.8108 46.1695 40.0528 47.6675C42.2949 49.1656 44.0424 51.2948 45.0744 53.786C46.1063 56.2772 46.3765 59.0184 45.8505 61.6631C45.3246 64.3078 44.0263 66.7371 42.1197 68.644C40.8598 69.921 39.3587 70.9351 37.7036 71.6272C36.0485 72.3193 34.2724 72.6757 32.4784 72.6757C30.6844 72.6757 28.9083 72.3193 27.2532 71.6272C25.5981 70.9351 24.097 69.921 22.8371 68.644ZM82.5316 66.0873C80.8497 68.9502 73.7402 68.5876 67.4694 68.2688C61.0988 67.9422 56.1758 68.1539 50.4752 68.3999C49.2206 68.4528 47.9239 68.5092 46.5608 68.5602C46.4078 68.5675 46.0086 68.573 45.5311 68.5785C47.8174 65.4599 48.9121 61.6261 48.6169 57.7705C48.3217 53.9149 46.6562 50.2923 43.9218 47.5582C43.7761 47.4105 43.6231 47.2703 43.472 47.1298C44.4689 46.6596 45.4314 46.1658 46.3252 45.6392L49.8189 53.4409C49.9029 53.63 50.0318 53.7957 50.1944 53.9237C50.3569 54.0517 50.5483 54.138 50.7518 54.1753C50.8282 54.1892 50.9057 54.196 50.9833 54.1955C51.2519 54.1949 51.5134 54.1094 51.7304 53.9512L50.3438 62.4298C50.3046 62.6682 50.334 62.9128 50.4285 63.1351C50.523 63.3574 50.6788 63.5483 50.8776 63.6855L55.3292 66.7621C55.5351 66.9041 55.7781 66.9826 56.0282 66.9878C56.2782 66.993 56.5243 66.9248 56.736 66.7915L61.6043 63.7134C61.8189 63.5781 61.9882 63.3818 62.0904 63.1496C62.1926 62.9174 62.223 62.66 62.1777 62.4104L60.6735 54.0322C60.8633 54.1398 61.0779 54.1964 61.2962 54.1963C61.3726 54.1967 61.4489 54.1899 61.5241 54.1762C61.7281 54.139 61.92 54.0527 62.0831 53.9248C62.2463 53.7968 62.3759 53.631 62.4606 53.4418L66.1327 45.2409C68.2887 46.6159 70.8421 47.6957 73.0234 48.616C73.8114 48.9495 74.556 49.263 75.163 49.5454C76.2003 50.3016 77.7652 52.3045 78.4742 53.4382C82.4074 59.7217 83.7719 63.9789 82.5329 66.0882L82.5316 66.0873ZM38.8415 26.4859V20.8916H37.7871V11.2353L56.3496 18.3203L78.325 9.93437L56.3499 1.54688L34.3766 9.93437L35.4645 10.3495V20.8923H34.4089V26.4859H38.8415Z" fill="#0D1B73"/>
</svg>
