<svg width="90" height="90" viewBox="0 0 90 90" fill="none" xmlns="http://www.w3.org/2000/svg">
<path d="M15.1991 42.947L22.7589 46.1496V50.3235H2.30219C1.85658 50.3235 1.49219 49.9589 1.49219 49.5135V42.504C1.49219 36.853 4.91447 31.9631 9.78854 29.8028C11.9633 31.6142 14.7668 32.7013 17.8098 32.7013C20.8527 32.7013 23.6563 31.614 25.831 29.8028C27.046 30.3414 28.1707 31.0496 29.1746 31.897L15.3258 37.7637C12.9814 38.7567 12.819 41.9387 15.1991 42.947ZM17.8098 30.0644C23.237 30.0644 27.6365 25.7187 27.6365 20.3581C27.6365 14.9974 23.2369 10.6518 17.8098 10.6518C12.3825 10.6518 7.98291 14.9974 7.98291 20.3581C7.98291 25.7187 12.3825 30.0644 17.8098 30.0644ZM43.519 25.8203C44.3916 25.4506 45.4718 25.3944 46.3502 25.7665L58.1526 30.7662C58.8772 30.0501 59.6672 29.3999 60.5127 28.8262C59.2267 25.2279 56.4917 22.3031 53.0198 20.7636C50.8451 22.5752 48.0412 23.6624 44.998 23.6624C41.9549 23.6624 39.151 22.575 36.9763 20.7636C33.5042 22.3029 30.7693 25.2277 29.4834 28.8262C30.3289 29.4001 31.1189 30.0501 31.8435 30.7662L43.519 25.8203ZM44.998 21.0259C50.4253 21.0259 54.8249 16.6802 54.8249 11.3196C54.8249 5.95894 50.4253 1.61328 44.998 1.61328C39.5708 1.61328 35.1712 5.95894 35.1712 11.3196C35.1712 16.6802 39.5708 21.0259 44.998 21.0259ZM73.6529 40.5682C73.8912 40.4636 73.9439 40.3193 73.7687 40.2449C64.9782 36.5215 54.5737 32.1134 45.3218 28.194C45.1438 28.1186 44.7954 28.1427 44.5475 28.2478L16.3545 40.1913C16.1066 40.2962 16.0495 40.4439 16.2276 40.5193L44.6744 52.5702C44.8525 52.6456 45.2007 52.6213 45.4487 52.5164L71.0161 41.6854V51.3536L68.3942 53.1365V61.4666L72.3345 58.5485L76.2748 61.4666V53.1365L73.6529 51.3536V40.5682ZM57.7682 62.2893C57.8944 63.4461 57.9769 64.6333 58.0115 65.8439H66.4205C66.2943 63.7702 65.8724 61.7763 65.1967 59.9039C62.8419 60.9178 60.3369 61.7039 57.7682 62.2893ZM72.1863 30.0644C77.6136 30.0644 82.0132 25.7187 82.0132 20.3581C82.0132 14.9974 77.6136 10.6518 72.1863 10.6518C66.7591 10.6518 62.3596 14.9974 62.3596 20.3581C62.3596 25.7187 66.7591 30.0644 72.1863 30.0644ZM80.2076 29.8026C78.0328 31.614 75.2293 32.7011 72.1863 32.7011C69.1434 32.7011 66.3398 31.6139 64.1651 29.8026C62.9501 30.3412 61.8254 31.0494 60.8213 31.8969L75.5968 38.3115C76.5118 39.1069 76.7246 40.3539 76.2896 41.4022V49.9582L76.8269 50.3237H87.6939C88.1395 50.3237 88.5041 49.9591 88.5041 49.5137V42.5042C88.5039 36.8529 85.0816 31.963 80.2076 29.8026ZM32.1444 68.4808H23.7355C24.021 73.1738 25.82 77.458 28.6506 80.8514C30.1688 80.0913 31.8818 79.4352 33.7463 78.905C32.8224 75.7981 32.2527 72.2536 32.1444 68.4808ZM43.6797 88.3411V80.055C41.3938 80.1291 39.2108 80.3803 37.1819 80.7816C38.3556 83.6632 40.5339 87.4084 43.6797 88.3411ZM34.782 65.8439H43.6797V63.6555C40.8187 63.5946 37.8784 63.3343 34.9787 62.837C34.8792 63.8165 34.8128 64.8204 34.782 65.8439ZM30.5557 82.8574C32.6749 84.8192 35.1921 86.3571 37.9726 87.3363C36.5182 85.5884 35.4252 83.5096 34.5988 81.3956C33.1395 81.8045 31.7837 82.2958 30.5557 82.8574ZM36.3011 78.278C38.61 77.7967 41.0925 77.4982 43.6795 77.4174V68.4806H34.7818C34.8892 72.0525 35.4296 75.3845 36.3011 78.278ZM64.6006 47.2665L46.4772 54.9441C45.6045 55.3138 44.5245 55.37 43.6461 54.9979L25.3956 47.2665V57.2865C30.597 59.6158 37.4662 61.0328 44.9982 61.0328C52.5303 61.0328 59.3995 59.6157 64.6008 57.2865V47.2665H64.6006ZM46.3164 80.0486V88.3879C49.5485 87.5404 51.789 83.6892 52.9768 80.7707C50.8994 80.3631 48.661 80.1128 46.3164 80.0486ZM52.1863 87.3353C54.9749 86.3529 57.4984 84.8084 59.6211 82.8383C58.3903 82.2786 57.0301 81.7889 55.565 81.3814C54.7383 83.5003 53.6442 85.5838 52.1863 87.3353ZM67.2374 50.3233H67.8422L68.3796 49.9579V45.6656L67.2374 46.1496V50.3233ZM32.384 62.3246C29.8111 61.747 27.2999 60.9692 24.9375 59.9635C24.2745 61.8187 23.8603 63.7922 23.7355 65.8441H32.1446C32.1788 64.6456 32.2599 63.4702 32.384 62.3246ZM46.3164 77.4112C48.9607 77.481 51.4986 77.7784 53.8567 78.2664C54.727 75.3751 55.2668 72.0471 55.3741 68.4808H46.3164V77.4112ZM56.4159 78.8902C58.2813 79.4179 59.9975 80.0729 61.5211 80.8326C64.3428 77.4422 66.1357 73.165 66.4209 68.4808H58.0118C57.9037 72.2483 57.3363 75.7875 56.4159 78.8902ZM46.3164 63.6555V65.8439H55.3741C55.3431 64.8109 55.2758 63.798 55.1747 62.8099C52.2241 63.325 49.2291 63.5938 46.3164 63.6555Z" fill="#0D1B73"/>
</svg>
