<svg width="65" height="88" viewBox="0 0 65 88" fill="none" xmlns="http://www.w3.org/2000/svg">
<path d="M55.2778 84.2207C55.6387 85.0887 55.5511 86.0048 55.0251 86.7834C54.5043 87.5671 53.6948 87.9968 52.7546 87.9968H24.2956C23.0134 87.9968 21.9375 87.1546 21.635 85.912L20.1104 79.6265C10.0746 81.6684 2.95043 81.3264 6.9809 71.8698C4.52996 71.031 3.73074 68.5131 6.47387 67.3976C5.08512 66.9937 2.78027 65.122 5.25527 62.989C2.85762 62.9203 -2.26769 62.8824 1.12856 57.3807C8.04653 48.5085 6.26418 46.1023 6.69215 41.3328C7.83168 28.7481 18.2782 20.5737 30.0053 18.1864C29.9812 18.5662 29.9657 18.9512 29.9657 19.3362V25.5185C29.7715 25.601 29.5704 25.6887 29.3814 25.7815L28.6646 25.4206C27.2707 24.709 25.5898 24.9771 24.4795 26.0823L22.7453 27.8165C21.6401 28.9217 21.372 30.6026 22.0836 32.0017L22.4496 32.7132C22.2262 33.1807 22.0251 33.6585 21.855 34.1449L21.0953 34.389C19.6051 34.8754 18.6048 36.2504 18.6048 37.8196V40.2757C18.6048 41.8398 19.6034 43.2182 21.0953 43.7012L21.855 43.9504C22.0303 44.4368 22.2245 44.9146 22.4496 45.3787L22.0836 46.0954C21.372 47.4893 21.6401 49.1737 22.7453 50.2806L24.4795 52.0148C25.5898 53.1199 27.2707 53.3881 28.6646 52.6765L29.3814 52.3104C29.8437 52.5339 30.3215 52.735 30.8096 52.9051L31.0589 53.6648C31.5418 55.1549 32.9203 56.1553 34.4843 56.1553H36.9404C38.5096 56.1553 39.8829 55.1567 40.3711 53.6648L40.6151 52.9051C41.1015 52.735 41.5793 52.5356 42.0468 52.3104L42.7584 52.6765C44.1575 53.3881 45.8384 53.1199 46.9436 52.0148L48.6778 50.2806C49.7846 49.1737 50.0511 47.4893 49.3412 46.0954L48.9803 45.3787C49.2003 44.9164 49.3996 44.4385 49.5698 43.9504L50.3346 43.7012C51.8214 43.2182 52.8234 41.8398 52.8234 40.2757V37.8196C52.8234 36.2504 51.8196 34.8771 50.3346 34.389L49.5698 34.1449C49.3996 33.6585 49.2003 33.1807 48.9803 32.7132L49.3412 32.0017C50.0528 30.6026 49.7846 28.9217 48.6778 27.8165L46.9436 26.0823C45.8384 24.9754 44.1575 24.709 42.7584 25.4206L42.0468 25.7815C41.8526 25.6887 41.6567 25.601 41.4625 25.5185V19.3345C41.4625 18.7896 41.5364 18.2585 41.6721 17.7515C53.3854 19.3053 63.7529 27.1049 64.7309 42.5548C64.2084 61.9698 45.9432 61.6295 55.2778 84.2207ZM22.3036 14.6578C22.5665 14.9207 22.9412 14.9946 23.2832 14.852C23.6287 14.711 23.8436 14.3931 23.8436 14.0184V11.277C23.8436 11.014 23.9415 10.7854 24.1409 10.6101C24.3403 10.4296 24.5792 10.3574 24.8421 10.3867C27.2776 10.6599 29.4261 11.9112 30.8836 13.7382C31.5367 11.8046 32.5112 10.0206 33.7539 8.44792C31.327 6.23589 28.1662 4.82307 24.6926 4.6237C24.2148 4.59448 23.8453 4.19917 23.8453 3.72307V0.904324C23.8453 0.529636 23.6304 0.211667 23.285 0.0707299C22.9446 -0.0702076 22.5682 0.0019799 22.3053 0.264949L15.7448 6.8237C15.3942 7.17432 15.3942 7.7501 15.7448 8.10073L22.3036 14.6578ZM32.8464 22.332C33.3431 22.0793 33.8982 21.9367 34.4826 21.9367H36.9387C37.5231 21.9367 38.0834 22.0776 38.575 22.332V19.3345C38.575 14.7162 42.0967 10.8868 46.5843 10.3849C46.8473 10.3557 47.0862 10.4296 47.2804 10.6084C47.4798 10.7837 47.5829 11.0123 47.5829 11.2753V14.0184C47.5829 14.3931 47.7978 14.711 48.1381 14.852C48.4836 14.9929 48.86 14.9207 49.1229 14.6578L55.68 8.10073C56.0306 7.7501 56.0306 7.17432 55.68 6.8237L49.1246 0.266667C48.8617 0.00369865 48.487 -0.0702076 48.1398 0.0724486C47.7995 0.213386 47.5846 0.529636 47.5846 0.906042V3.72135C47.5846 4.19917 47.2151 4.59276 46.7373 4.62198C39.0098 5.06542 32.8464 11.5004 32.8464 19.3362V22.332ZM45.9037 32.4021C45.7868 32.6307 45.7971 32.8799 45.9226 33.0982C46.4537 34.004 46.8679 34.994 47.1412 36.0304C47.2048 36.2796 47.375 36.4584 47.619 36.5374L49.4409 37.1321C49.7434 37.2301 49.9428 37.4982 49.9428 37.8196V40.2757C49.9428 40.592 49.7434 40.8653 49.4409 40.9632L47.619 41.5579C47.375 41.6353 47.2048 41.8157 47.1412 42.0598C46.8679 43.1031 46.4537 44.0862 45.9226 44.9971C45.7954 45.2171 45.7868 45.4646 45.9037 45.6898L46.7751 47.3999C46.9161 47.687 46.8679 48.0135 46.6393 48.2421L44.9051 49.9764C44.6817 50.1998 44.35 50.2548 44.0664 50.1087L42.3562 49.2373C42.1276 49.1256 41.8784 49.1307 41.6601 49.2562C40.7543 49.7873 39.7695 50.2015 38.7279 50.4748C38.4787 50.5435 38.3 50.7137 38.2209 50.9526L37.6262 52.7745C37.5282 53.0821 37.2601 53.2764 36.9387 53.2764H34.4826C34.1664 53.2764 33.8931 53.0821 33.7951 52.7745L33.2004 50.9526C33.1231 50.7137 32.9426 50.5435 32.6986 50.4748C31.6553 50.2015 30.6721 49.7873 29.7612 49.2562C29.5412 49.129 29.2937 49.1239 29.0686 49.2373L27.3584 50.1087C27.0765 50.2548 26.7448 50.2015 26.5162 49.9764L24.782 48.2421C24.5586 48.0135 24.5036 47.687 24.6496 47.3999L25.5211 45.6898C25.6328 45.4664 25.6276 45.2171 25.5021 44.9971C24.9711 44.0862 24.5568 43.1014 24.2836 42.0598C24.2148 41.8157 24.0446 41.6353 23.8057 41.5579L21.9839 40.9632C21.6762 40.8653 21.482 40.5937 21.482 40.2757V37.8196C21.482 37.4982 21.6762 37.2301 21.9839 37.1321L23.8057 36.5374C24.0446 36.4601 24.2148 36.2796 24.2836 36.0304C24.5568 34.9923 24.9711 34.004 25.5021 33.0982C25.6293 32.8782 25.6345 32.6307 25.5211 32.4021L24.6496 30.692C24.5036 30.4101 24.5568 30.0784 24.782 29.8532L26.5162 28.119C26.7448 27.8904 27.0765 27.8406 27.3584 27.9832L29.0686 28.8546C29.292 28.9715 29.5412 28.9612 29.7612 28.8357C30.6721 28.3046 31.657 27.8904 32.6986 27.6171C32.9426 27.5535 33.1231 27.3834 33.2004 27.1393L33.7951 25.3174C33.8931 25.0149 34.1646 24.8156 34.4826 24.8156H36.9387C37.2601 24.8156 37.5282 25.0149 37.6262 25.3174L38.2209 27.1393C38.2982 27.3834 38.4787 27.5535 38.7279 27.6171C39.7712 27.8904 40.7543 28.3046 41.6601 28.8357C41.8801 28.9629 42.1276 28.9715 42.3562 28.8546L44.0664 27.9832C44.3482 27.8423 44.68 27.8904 44.9051 28.119L46.6393 29.8532C46.8679 30.0767 46.9178 30.4084 46.7751 30.692L45.9037 32.4021ZM42.6398 39.0468C42.6398 37.1321 41.8646 35.3979 40.6134 34.1449C39.3621 32.892 37.6262 32.1185 35.7115 32.1185C33.802 32.1185 32.0678 32.8937 30.8148 34.1449C29.5584 35.3979 28.7832 37.1321 28.7832 39.0468C28.7832 40.9564 29.5584 42.6906 30.8148 43.9435C32.0678 45.1999 33.802 45.9751 35.7115 45.9751C37.6262 45.9751 39.3604 45.1999 40.6134 43.9435C41.8646 42.6923 42.6398 40.9564 42.6398 39.0468ZM35.7115 34.9992C34.5961 34.9992 33.582 35.4529 32.8515 36.1834C32.1159 36.9139 31.6621 37.9279 31.6621 39.0485C31.6621 40.164 32.1159 41.1781 32.8515 41.9085C33.582 42.6442 34.5961 43.0979 35.7115 43.0979C36.8321 43.0979 37.8462 42.6442 38.5767 41.9085C39.3072 41.1781 39.7609 40.164 39.7609 39.0485C39.7609 37.9279 39.3072 36.9139 38.5767 36.1834C37.8462 35.4529 36.8321 34.9992 35.7115 34.9992Z" fill="url(#paint0_linear_3763_1106)"/>
<defs>
<linearGradient id="paint0_linear_3763_1106" x1="32.3654" y1="0" x2="32.3654" y2="87.9968" gradientUnits="userSpaceOnUse">
<stop stop-color="#0D1B73"/>
<stop offset="1" stop-color="#6A0DAD"/>
</linearGradient>
</defs>
</svg>
